<?xml version="1.0" encoding="UTF-8" standalone="no"?>
<!DOCTYPE svg PUBLIC "-//W3C//DTD SVG 1.1//EN" "http://www.w3.org/Graphics/SVG/1.1/DTD/svg11.dtd">
<svg width="100%" height="100%" viewBox="0 0 16 16" version="1.1" xmlns="http://www.w3.org/2000/svg" xmlns:xlink="http://www.w3.org/1999/xlink" xml:space="preserve" xmlns:serif="http://www.serif.com/" style="fill-rule:evenodd;clip-rule:evenodd;stroke-linejoin:round;stroke-miterlimit:2;">
    <g transform="matrix(0.647076,0.0805232,-0.0805232,0.647076,6.04873,8.50519)">
        <path d="M4.987,0.155C5.039,0.121 5.099,0.101 5.161,0.098C5.66,0.214 7.678,3.602 7.651,5.366C7.621,7.359 6.606,8.46 5.042,8.437C3.448,8.414 2.465,7.359 2.501,5.461C2.528,4.018 4.452,0.615 4.987,0.155Z"/>
    </g>
    <g transform="matrix(0.647076,0.0805232,-0.0805232,0.647076,7.74318,1.6437)">
        <path d="M4.987,0.155C5.039,0.121 5.099,0.101 5.161,0.098C5.66,0.214 7.678,3.602 7.651,5.366C7.621,7.359 6.606,8.46 5.042,8.437C3.448,8.414 2.465,7.359 2.501,5.461C2.528,4.018 4.452,0.615 4.987,0.155Z"/>
    </g>
    <g transform="matrix(0.638754,0.131091,-0.131091,0.638754,2.09905,3.60802)">
        <path d="M4.987,0.155C5.039,0.121 5.099,0.101 5.161,0.098C5.66,0.214 7.678,3.602 7.651,5.366C7.621,7.359 6.606,8.46 5.042,8.437C3.448,8.414 2.465,7.359 2.501,5.461C2.528,4.018 4.452,0.615 4.987,0.155Z"/>
    </g>
</svg>
