<?xml version="1.0" encoding="UTF-8" standalone="no"?>
<!-- Created with Inkscape (http://www.inkscape.org/) -->

<svg
   xmlns:dc="http://purl.org/dc/elements/1.1/"
   xmlns:cc="http://creativecommons.org/ns#"
   xmlns:rdf="http://www.w3.org/1999/02/22-rdf-syntax-ns#"
   xmlns:svg="http://www.w3.org/2000/svg"
   xmlns="http://www.w3.org/2000/svg"
   xmlns:sodipodi="http://sodipodi.sourceforge.net/DTD/sodipodi-0.dtd"
   xmlns:inkscape="http://www.inkscape.org/namespaces/inkscape"
   width="32mm"
   height="32mm"
   viewBox="0 0 32 32"
   version="1.1"
   id="svg5307"
   sodipodi:docname="search.svg"
   inkscape:version="0.92.4 5da689c313, 2019-01-14">
  <defs
     id="defs5301" />
  <sodipodi:namedview
     id="base"
     pagecolor="#ffffff"
     bordercolor="#666666"
     borderopacity="1.0"
     inkscape:pageopacity="0.0"
     inkscape:pageshadow="2"
     inkscape:zoom="5.6"
     inkscape:cx="26.996541"
     inkscape:cy="73.145595"
     inkscape:document-units="mm"
     inkscape:current-layer="layer1"
     showgrid="false"
     showguides="false"
     inkscape:window-width="1920"
     inkscape:window-height="1080"
     inkscape:window-x="0"
     inkscape:window-y="0"
     inkscape:window-maximized="0" />
  <metadata
     id="metadata5304">
    <rdf:RDF>
      <cc:Work
         rdf:about="">
        <dc:format>image/svg+xml</dc:format>
        <dc:type
           rdf:resource="http://purl.org/dc/dcmitype/StillImage" />
        <dc:title></dc:title>
      </cc:Work>
    </rdf:RDF>
  </metadata>
  <g
     inkscape:label="Layer 1"
     inkscape:groupmode="layer"
     id="layer1"
     transform="translate(0,-265)">
    <path
       style="fill:#b3b3b3;fill-opacity:0.99047618;stroke:none;stroke-width:181.85321045;stroke-miterlimit:4;stroke-dasharray:none;stroke-opacity:1"
       d="M 83.150391 0 A 37.79514 37.795133 0 0 0 45.353516 37.794922 A 37.79514 37.795133 0 0 0 51.640625 58.623047 A 7.5597672 7.5597672 0 0 0 51.441406 58.814453 L 2.3222656 107.93359 A 7.5597672 7.5597672 0 1 0 13.011719 118.62305 L 62.130859 69.503906 A 7.5597672 7.5597672 0 0 0 62.316406 69.304688 A 37.79514 37.795133 0 0 0 83.150391 75.589844 A 37.79514 37.795133 0 0 0 120.94531 37.794922 A 37.79514 37.795133 0 0 0 83.150391 0 z M 83.150391 9.4472656 A 28.346355 28.346349 0 0 1 111.49609 37.794922 A 28.346355 28.346349 0 0 1 83.150391 66.142578 A 28.346355 28.346349 0 0 1 54.802734 37.794922 A 28.346355 28.346349 0 0 1 83.150391 9.4472656 z "
       transform="matrix(0.26458333,0,0,0.26458333,0,265)"
       id="path5852" />
  </g>
</svg>
