<?xml version="1.0" encoding="UTF-8" standalone="no"?>
<!DOCTYPE svg PUBLIC "-//W3C//DTD SVG 1.1//EN" "http://www.w3.org/Graphics/SVG/1.1/DTD/svg11.dtd">
<svg width="100%" height="100%" viewBox="0 0 16 16" version="1.1" xmlns="http://www.w3.org/2000/svg" xmlns:xlink="http://www.w3.org/1999/xlink" xml:space="preserve" xmlns:serif="http://www.serif.com/" style="fill-rule:evenodd;clip-rule:evenodd;stroke-linecap:round;stroke-linejoin:round;stroke-miterlimit:1.5;">
    <g transform="matrix(1,0,0,1,-0.962081,0.50423)">
        <path d="M1.809,5.245L8.56,5.145C10.776,5.17 11.395,3.856 11.361,3.04C11.229,-0.202 8.151,0.187 7.723,2.97" style="fill:none;stroke:black;stroke-width:1px;"/>
    </g>
    <g transform="matrix(1,0,0,-1,-0.962081,15.4176)">
        <path d="M1.809,5.245L8.56,5.145C10.776,5.17 11.395,3.856 11.361,3.04C11.229,-0.202 8.151,0.187 7.723,2.97" style="fill:none;stroke:black;stroke-width:1px;"/>
    </g>
    <g transform="matrix(1,0,0,1,3.79014,2.75476)">
        <path d="M-2.943,5.245L8.56,5.145C10.776,5.17 11.395,3.856 11.361,3.04C11.229,-0.202 8.151,0.187 7.723,2.97" style="fill:none;stroke:black;stroke-width:1px;"/>
    </g>
</svg>
